<svg width="47" height="47" viewBox="0 0 47 47" fill="none" xmlns="http://www.w3.org/2000/svg">
<rect x="0.0526123" y="0.368652" width="46" height="46" rx="23" fill="#14B8A6"/>
<path d="M30.1566 17.3236C30.259 17.2191 30.3811 17.1361 30.516 17.0795C30.6508 17.0228 30.7956 16.9937 30.9418 16.9937C31.0881 16.9937 31.2329 17.0228 31.3677 17.0795C31.5025 17.1361 31.6247 17.2191 31.7271 17.3236C32.1561 17.7571 32.1621 18.4576 31.7421 18.8986L22.8726 29.3836C22.7719 29.4941 22.6497 29.583 22.5135 29.6447C22.3772 29.7065 22.2298 29.7398 22.0803 29.7426C21.9308 29.7454 21.7822 29.7176 21.6438 29.6611C21.5053 29.6045 21.3799 29.5203 21.2751 29.4136L15.8781 23.9446C15.6699 23.7323 15.5533 23.4468 15.5533 23.1496C15.5533 22.8523 15.6699 22.5668 15.8781 22.3546C15.9805 22.2501 16.1026 22.1671 16.2375 22.1105C16.3723 22.0538 16.5171 22.0247 16.6633 22.0247C16.8096 22.0247 16.9544 22.0538 17.0892 22.1105C17.224 22.1671 17.3462 22.2501 17.4486 22.3546L22.0266 26.9941L30.1266 17.3566C30.1359 17.345 30.1459 17.3339 30.1566 17.3236Z" fill="white"/>
</svg>
